<?xml version="1.0" encoding="UTF-8"?>
<svg version="1.1" xmlns="http://www.w3.org/2000/svg" width="346" height="190">
<path d="M0 0 C12.25232309 8.32506443 22.4719145 19.54330161 25.90234375 34.23046875 C29.06963803 52.37042691 19.73264841 66.85383137 9.8125 81.0625 C9.09900391 82.02542969 9.09900391 82.02542969 8.37109375 83.0078125 C7.12010779 85.43129118 7.1935532 87.2483654 7.375 89.9375 C8.66083984 90.59105469 8.66083984 90.59105469 9.97265625 91.2578125 C16.37104093 94.5904548 22.22887401 97.79137401 27.375 102.9375 C27.375 103.5975 27.375 104.2575 27.375 104.9375 C28.035 104.9375 28.695 104.9375 29.375 104.9375 C40.87848756 118.65669889 48.99462516 134.84474711 48.84375 152.85546875 C48.375 155.9375 48.375 155.9375 47.05859375 157.8359375 C44.15804159 159.73374657 41.72023113 159.34831786 38.375 158.9375 C34.74911117 156.090013 33.76042174 153.70623442 32.875 149.25 C29.97596335 136.51274325 23.41184428 126.05083028 14.8125 116.3125 C14.36575928 115.79131592 13.91901855 115.27013184 13.45874023 114.7331543 C11.17617116 112.2422836 9.49321708 110.97542428 6.2578125 109.9375 C2.96363517 109.9375 2.12382599 110.30129915 -0.1875 112.5625 C-0.77789062 113.12066406 -1.36828125 113.67882812 -1.9765625 114.25390625 C-3.35075982 115.6574111 -4.70871781 117.07679308 -6.0625 118.5 C-13.54153204 125.61420121 -21.56143727 128.42275351 -31.859375 128.18359375 C-40.29467338 127.43299517 -48.30896909 123.48415852 -54.16015625 117.3203125 C-55.33533434 115.87559816 -56.48164492 114.40752797 -57.625 112.9375 C-59.42995431 110.93571137 -59.42995431 110.93571137 -61.625 109.9375 C-67.7974779 110.36754969 -70.16537314 112.80181358 -74.25390625 117.15234375 C-82.60581163 126.96273673 -89.45913488 137.53942055 -91.6875 150.4375 C-92.2226913 153.46376353 -92.61633039 154.92401394 -94.3125 157.5625 C-97.56509066 159.49647283 -99.91002389 159.34277012 -103.625 158.9375 C-104.615 158.2775 -105.605 157.6175 -106.625 156.9375 C-106.93471296 154.33834025 -107.0523178 152.03417745 -107 149.4375 C-106.98767334 148.70845459 -106.97534668 147.97940918 -106.96264648 147.22827148 C-106.39118489 128.76330263 -94.68544356 111.53380128 -81.75 99.0625 C-77.63711698 95.43423576 -73.8034903 93.43318591 -68.55859375 91.88671875 C-66.44408296 91.11309662 -66.44408296 91.11309662 -65.8125 88.97265625 C-65.32808893 83.71477774 -69.0222651 79.89135297 -72.08984375 76 C-73.78053243 73.72854041 -75.19960935 71.38367822 -76.625 68.9375 C-77.13160156 68.09832031 -77.63820312 67.25914063 -78.16015625 66.39453125 C-84.58017966 55.27853164 -86.49922088 43.84480635 -83.4375 31.25 C-81.88412351 26.18899917 -79.78864959 22.16356922 -76.625 17.9375 C-75.96242187 17.04933594 -75.29984375 16.16117188 -74.6171875 15.24609375 C-55.81393273 -8.83124468 -26.7373536 -15.49551174 0 0 Z M-58.546875 21.2421875 C-64.25362128 28.64379451 -69.04027308 37.63876101 -68.49609375 47.203125 C-65.88602359 59.14831094 -59.06080576 69.00148079 -48.8828125 75.7578125 C-38.70842067 81.59188205 -29.60381443 83.46802472 -18.1875 80.375 C-7.35512462 76.79342849 0.4803595 69.49632889 5.6953125 59.375 C9.4991937 50.22440468 9.88106076 41.07631039 6.4375 31.75 C1.78903481 21.86548272 -5.67131113 14.43223581 -15.625 9.9375 C-32.00233801 4.14040727 -46.58818769 8.55221356 -58.546875 21.2421875 Z M-40.625 98.9375 C-41.615 100.4225 -41.615 100.4225 -42.625 101.9375 C-41.33642987 103.25304021 -40.04404109 104.56484097 -38.75 105.875 C-38.03070313 106.60589844 -37.31140625 107.33679688 -36.5703125 108.08984375 C-34.07025422 110.46439709 -32.94425824 110.88641868 -29.5 111.4375 C-24.1411134 110.74603076 -21.04698008 108.04387609 -17.625 103.9375 C-16.77535008 101.85994162 -16.77535008 101.85994162 -16.625 99.9375 C-20.86902073 95.69347927 -35.00327437 97.81315487 -40.625 98.9375 Z " fill="#FFFFFF" transform="translate(291.625,24.0625)"/>
<path d="M0 0 C12.25232309 8.32506443 22.4719145 19.54330161 25.90234375 34.23046875 C29.06963803 52.37042691 19.73264841 66.85383137 9.8125 81.0625 C9.09900391 82.02542969 9.09900391 82.02542969 8.37109375 83.0078125 C7.12010779 85.43129118 7.1935532 87.2483654 7.375 89.9375 C8.66083984 90.59105469 8.66083984 90.59105469 9.97265625 91.2578125 C16.37104093 94.5904548 22.22887401 97.79137401 27.375 102.9375 C27.375 103.5975 27.375 104.2575 27.375 104.9375 C28.035 104.9375 28.695 104.9375 29.375 104.9375 C40.87848756 118.65669889 48.99462516 134.84474711 48.84375 152.85546875 C48.375 155.9375 48.375 155.9375 47.05859375 157.8359375 C44.15804159 159.73374657 41.72023113 159.34831786 38.375 158.9375 C34.74911117 156.090013 33.76042174 153.70623442 32.875 149.25 C29.97596335 136.51274325 23.41184428 126.05083028 14.8125 116.3125 C14.36575928 115.79131592 13.91901855 115.27013184 13.45874023 114.7331543 C11.17617116 112.2422836 9.49321708 110.97542428 6.2578125 109.9375 C2.96363517 109.9375 2.12382599 110.30129915 -0.1875 112.5625 C-0.77789062 113.12066406 -1.36828125 113.67882812 -1.9765625 114.25390625 C-3.35075982 115.6574111 -4.70871781 117.07679308 -6.0625 118.5 C-13.54153204 125.61420121 -21.56143727 128.42275351 -31.859375 128.18359375 C-40.29467338 127.43299517 -48.30896909 123.48415852 -54.16015625 117.3203125 C-55.33533434 115.87559816 -56.48164492 114.40752797 -57.625 112.9375 C-59.42995431 110.93571137 -59.42995431 110.93571137 -61.625 109.9375 C-67.7974779 110.36754969 -70.16537314 112.80181358 -74.25390625 117.15234375 C-82.60581163 126.96273673 -89.45913488 137.53942055 -91.6875 150.4375 C-92.2226913 153.46376353 -92.61633039 154.92401394 -94.3125 157.5625 C-97.56509066 159.49647283 -99.91002389 159.34277012 -103.625 158.9375 C-104.615 158.2775 -105.605 157.6175 -106.625 156.9375 C-106.93471296 154.33834025 -107.0523178 152.03417745 -107 149.4375 C-106.98767334 148.70845459 -106.97534668 147.97940918 -106.96264648 147.22827148 C-106.39118489 128.76330263 -94.68544356 111.53380128 -81.75 99.0625 C-77.63711698 95.43423576 -73.8034903 93.43318591 -68.55859375 91.88671875 C-66.44408296 91.11309662 -66.44408296 91.11309662 -65.8125 88.97265625 C-65.32808893 83.71477774 -69.0222651 79.89135297 -72.08984375 76 C-73.78053243 73.72854041 -75.19960935 71.38367822 -76.625 68.9375 C-77.13160156 68.09832031 -77.63820313 67.25914063 -78.16015625 66.39453125 C-84.58017966 55.27853164 -86.49922088 43.84480635 -83.4375 31.25 C-81.88412351 26.18899917 -79.78864959 22.16356922 -76.625 17.9375 C-75.96242188 17.04933594 -75.29984375 16.16117188 -74.6171875 15.24609375 C-55.81393273 -8.83124468 -26.7373536 -15.49551174 0 0 Z M-58.546875 21.2421875 C-64.25362128 28.64379451 -69.04027308 37.63876101 -68.49609375 47.203125 C-65.88602359 59.14831094 -59.06080576 69.00148079 -48.8828125 75.7578125 C-38.70842067 81.59188205 -29.60381443 83.46802472 -18.1875 80.375 C-7.35512462 76.79342849 0.4803595 69.49632889 5.6953125 59.375 C9.4991937 50.22440468 9.88106076 41.07631039 6.4375 31.75 C1.78903481 21.86548272 -5.67131113 14.43223581 -15.625 9.9375 C-32.00233801 4.14040727 -46.58818769 8.55221356 -58.546875 21.2421875 Z M-40.625 98.9375 C-41.615 100.4225 -41.615 100.4225 -42.625 101.9375 C-41.33642987 103.25304021 -40.04404109 104.56484097 -38.75 105.875 C-38.03070313 106.60589844 -37.31140625 107.33679688 -36.5703125 108.08984375 C-34.07025422 110.46439709 -32.94425824 110.88641868 -29.5 111.4375 C-24.1411134 110.74603076 -21.04698008 108.04387609 -17.625 103.9375 C-16.77535008 101.85994162 -16.77535008 101.85994162 -16.625 99.9375 C-20.86902073 95.69347927 -35.00327437 97.81315487 -40.625 98.9375 Z " fill="#FFFFFF" transform="translate(110.625,24.0625)"/>
</svg>
