<?xml version="1.0" encoding="UTF-8"?>
<svg version="1.1" xmlns="http://www.w3.org/2000/svg" width="354" height="183">
<path d="M0 0 C0.90411118 -0.00571014 1.80822235 -0.01142029 2.73973083 -0.01730347 C4.21648285 -0.01898026 4.21648285 -0.01898026 5.72306824 -0.02069092 C7.28715675 -0.02813828 7.28715675 -0.02813828 8.88284302 -0.03573608 C12.33374185 -0.05034578 15.78459472 -0.05715765 19.23551941 -0.06268311 C21.63441977 -0.0684354 24.03332012 -0.07419312 26.43222046 -0.07995605 C31.46341669 -0.09046255 36.49459695 -0.09630757 41.52580261 -0.09979248 C47.96861524 -0.10527737 54.41121655 -0.129307 60.8539629 -0.15776443 C65.80996312 -0.17639914 70.76591251 -0.18159686 75.72194481 -0.18312836 C78.09696801 -0.18615336 80.47199035 -0.19417671 82.84697914 -0.20731354 C86.17172398 -0.22439147 89.49595343 -0.22248928 92.82072449 -0.21600342 C93.79915314 -0.2252182 94.77758179 -0.23443298 95.78565979 -0.243927 C102.55896249 -0.20259151 107.50659954 0.64832517 112.84098816 5.14044189 C115.81419592 8.79977453 115.60570914 12.17141321 115.64299011 16.7197876 C115.64956131 17.38358429 115.65613251 18.04738098 115.66290283 18.73129272 C115.68259995 20.92627074 115.69429032 23.12118045 115.70426941 25.31622314 C115.70834494 26.06722982 115.71242046 26.8182365 115.71661949 27.59200096 C115.73746491 31.56704812 115.75177323 35.54206092 115.76115417 39.51715088 C115.77221575 43.61622618 115.80661649 47.7147582 115.84632587 51.81364155 C115.87250878 54.97158293 115.88084745 58.12939516 115.88443565 61.28743553 C115.8892973 62.7980739 115.90089937 64.30870666 115.91947365 65.81923866 C115.94390271 67.93756439 115.94289432 70.05448824 115.93595886 72.1729126 C115.9418251 73.3763179 115.94769135 74.57972321 115.95373535 75.81959534 C115.22864411 80.75640851 113.02983857 83.94697711 109.09098816 86.95294189 C103.07833708 89.67295072 96.56343668 89.31011986 90.08952332 89.34918213 C89.05786545 89.35896591 88.02620758 89.36874969 86.96328735 89.37882996 C83.56055474 89.40866449 80.15786092 89.43013186 76.75505066 89.44903564 C75.59005413 89.45560747 74.4250576 89.4621793 73.22475815 89.46895027 C67.06234195 89.50148562 60.89994267 89.52595512 54.73747253 89.54547119 C49.64314179 89.56330489 44.54936239 89.59816791 39.45524597 89.64801025 C33.29503647 89.70820368 27.13533928 89.73894479 20.9748497 89.74864388 C18.63130601 89.75719707 16.28777597 89.77601158 13.94440079 89.8053875 C10.66274064 89.84432337 7.38307859 89.84533364 4.10124207 89.83746338 C2.65773125 89.86746429 2.65773125 89.86746429 1.18505859 89.89807129 C-4.84953746 89.83326786 -8.31381283 88.57811421 -13.01325893 84.76830292 C-18.48770892 78.90828205 -16.83991487 68.21272887 -16.83479309 60.82403564 C-16.83868775 59.4397621 -16.84302398 58.05548973 -16.84777832 56.67121887 C-16.85520422 53.78242094 -16.85497485 50.89374533 -16.84968567 48.00494385 C-16.84388151 44.31756946 -16.86086198 40.63069582 -16.88403034 36.9434042 C-16.89881234 34.08908705 -16.8996336 31.23488949 -16.89652061 28.38054085 C-16.89727774 26.36489268 -16.91110449 24.34926295 -16.92520142 22.33366394 C-16.89263622 15.87709465 -16.85519158 10.7692818 -13.53401184 5.14044189 C-9.25930233 0.97534032 -5.82169873 0.02209862 0 0 Z M6.46598816 36.14044189 C4.26227971 38.77067456 3.57300721 40.60534662 2.90348816 43.95294189 C3.74794797 48.73821415 5.59011022 52.13737617 9.46598816 55.14044189 C14.63844374 56.39574544 18.91011551 56.02951198 23.52848816 53.39044189 C26.56908537 49.85942578 27.53911963 48.48118562 27.27848816 43.70294189 C26.46235634 40.12451777 25.80135374 37.95898656 23.46598816 35.14044189 C17.07161238 32.28338037 12.59330523 32.90967471 6.46598816 36.14044189 Z M74.21598816 37.45294189 C72.36579154 40.29431527 71.54642079 41.76227144 71.46598816 45.14044189 C72.93272419 49.61784663 74.17022631 52.93119294 78.46598816 55.14044189 C82.37326558 56.35603932 84.21793216 56.22032434 88.15348816 54.95294189 C91.37228574 53.19171303 92.81508338 52.35053452 94.46598816 49.14044189 C95.6731026 44.77625891 95.66630613 42.12196965 93.46598816 38.14044189 C91.16909557 34.96012907 89.31265292 33.8783198 85.52848816 33.26544189 C80.54158054 32.89535599 77.75438578 33.81625545 74.21598816 37.45294189 Z " fill="#FFFFFF" transform="translate(194.5340118408203,68.85955810546875)"/>
<path d="M0 0 C7.3431544 6.15067634 12.95166783 12.85500348 16 22 C17.05721813 35.32788103 13.93887831 43.51754874 6.68359375 54.45703125 C3.15299592 59.32686919 3.15299592 59.32686919 2 65 C2.99580078 65.47179687 2.99580078 65.47179687 4.01171875 65.953125 C4.89472656 66.38109375 5.77773437 66.8090625 6.6875 67.25 C7.55761719 67.66765625 8.42773438 68.0853125 9.32421875 68.515625 C21.67496687 75.36713491 29.55594939 89.9670239 33.671875 103.15234375 C34.05475721 105.30833527 34.20553879 107.37278539 34.25 109.5625 C34.27578125 110.32691406 34.3015625 111.09132813 34.328125 111.87890625 C34 114 34 114 32.703125 115.77734375 C31 117 31 117 27.5 117 C24 116 24 116 22.1875 114 C21.19061781 111.48156079 20.70695205 109.50365199 20.25 106.875 C19.23256769 101.56471731 16.49378635 97.68588183 13.4609375 93.28515625 C12 91 12 91 12 89 C11.34 89 10.68 89 10 89 C8.2166856 86.98759483 6.59287682 84.87752145 4.94921875 82.75 C3.10768386 80.77287038 3.10768386 80.77287038 0.4140625 80.6171875 C-3.20643138 81.19131113 -4.52232654 83.3494656 -7 86 C-13.20943575 91.4734035 -18.14371722 93.55851975 -26.4375 94.3125 C-36.056753 93.46870588 -42.14333657 89.38940968 -48.53125 82.30078125 C-50.06647974 80.6855004 -50.06647974 80.6855004 -53.125 80.6875 C-59.09177406 81.89596057 -62.64870663 87.32473888 -66 92 C-70.25550916 98.94611468 -73.20293774 106.06297502 -75 114 C-76.25 116 -76.25 116 -78 117 C-81.0625 117.3125 -81.0625 117.3125 -84 117 C-86.57876724 114.42123276 -86.3565453 113.28284113 -86.4375 109.6875 C-86.16121491 96.08452234 -78.61111558 83.68898724 -69.4375 74 C-66.23372824 70.99372102 -62.90943201 68.99159744 -59 67 C-58.195625 66.5875 -57.39125 66.175 -56.5625 65.75 C-56.046875 65.5025 -55.53125 65.255 -55 65 C-55.46212972 59.76775161 -57.18015957 56.91278303 -60.3125 52.75 C-66.93874843 43.54811324 -70.61479179 35.53842131 -69 24 C-66.11967829 12.32711729 -57.96246867 2.84146264 -47.9375 -3.5625 C-31.64486455 -12.26045814 -15.10115274 -10.23952807 0 0 Z M-47 12 C-47 12.66 -47 13.32 -47 14 C-47.66 14 -48.32 14 -49 14 C-53.47910393 19.69095699 -56.53044101 25.6643889 -56 33 C-54.63452293 41.09432285 -50.09590921 47.92313722 -43.56640625 52.828125 C-35.12237678 58.12331548 -27.8439742 60.05816242 -18 58 C-9.87424289 55.25593064 -4.17094605 50.52650597 0.09375 43.09375 C3.02152532 36.47914651 3.10840994 28.67581154 0.9375 21.8125 C-2.6941256 13.66633066 -8.73533709 8.7309087 -16.75 5.07421875 C-28.0539049 1.33795211 -38.12148941 4.49051145 -47 12 Z M-35 72 C-35.33 72.66 -35.66 73.32 -36 74 C-32.64840228 77.74590334 -30.08273556 80.27389492 -25 81 C-21.05483398 79.02741699 -18.50809793 77.22267422 -17 73 C-18.21428988 71.55611429 -18.21428988 71.55611429 -21.81640625 71.90234375 C-23.39846682 71.90901911 -24.98051159 71.92098125 -26.5625 71.9375 C-27.36880859 71.94201172 -28.17511719 71.94652344 -29.00585938 71.95117188 C-31.00393756 71.96299482 -33.00197783 71.98093086 -35 72 Z " fill="#FFFFFF" transform="translate(91,59)"/>
<path d="M0 0 C21.92105263 0 21.92105263 0 27.4375 5.375 C31.31792841 11.89411973 30.22111402 20.03796071 30.25 27.375 C30.270625 28.67695312 30.29125 29.97890625 30.3125 31.3203125 C30.37053038 45.53775451 30.37053038 45.53775451 24.703125 51.359375 C21.62094047 53.23006504 19.31550401 53.78493426 15.75 54.25 C14.69296875 54.39953125 13.6359375 54.5490625 12.546875 54.703125 C8.37799038 55.05206248 4.18346224 55 0 55 C0 36.85 0 18.7 0 0 Z " fill="#FFFFFF" transform="translate(317,86)"/>
<path d="M0 0 C0 18.15 0 36.3 0 55 C-10.44827586 55 -10.44827586 55 -15.75 54.25 C-16.81734375 54.11078125 -17.8846875 53.9715625 -18.984375 53.828125 C-23.66290676 52.54334685 -26.13506709 50.44508199 -28.61645508 46.29931641 C-30.86581687 40.935301 -30.48127318 35.46378765 -30.44604492 29.7421875 C-30.43754852 27.63702084 -30.46631103 25.53458588 -30.49804688 23.4296875 C-30.53702157 15.9833687 -30.2505701 10.27836501 -26 4 C-18.19385254 -2.04976428 -10.04997904 0 0 0 Z " fill="#FFFFFF" transform="translate(171,86)"/>
<path d="M0 0 C4.08520972 2.21253294 6.52800232 4.58400695 8 9 C8.44210066 15.74203511 7.40221376 19.60857362 3.42651367 25.22143555 C1.62777528 28.72501961 1.56912364 31.34059091 1.48828125 35.26953125 C1.47033005 35.95053391 1.45237885 36.63153656 1.43388367 37.33317566 C1.38001369 39.4928888 1.34596218 41.65238399 1.3125 43.8125 C1.27930609 45.28323331 1.24481451 46.75393793 1.20898438 48.22460938 C1.12187302 51.81643348 1.06161364 55.40728734 1 59 C-3.62 59 -8.24 59 -13 59 C-13.00257813 56.710625 -13.00515625 54.42125 -13.0078125 52.0625 C-13.03069064 49.82160972 -13.0636984 47.58107864 -13.09765625 45.34033203 C-13.11571705 43.79452097 -13.12340287 42.24854979 -13.12011719 40.70263672 C-12.81966583 30.35569077 -12.81966583 30.35569077 -17.01953125 21.23046875 C-17.56198486 20.69574951 -18.10443848 20.16103027 -18.66333008 19.61010742 C-20.83931586 16.98898848 -20.63855155 14.31845462 -20.390625 11.0390625 C-19.61843055 7.00820747 -17.63490219 4.75778649 -15.0625 1.6875 C-10.18711061 -0.99893905 -5.42580995 -0.96761472 0 0 Z " fill="#FFFFFF" transform="translate(250,4)"/>
</svg>
